<svg width="20" height="20" viewBox="0 0 20 20" fill="none" xmlns="http://www.w3.org/2000/svg">
<rect width="20" height="20" fill="white"/>
<path d="M0 18V15.2C0 14.65 0.141667 14.1333 0.425 13.65C0.708333 13.1667 1.1 12.8 1.6 12.55C2.45 12.1167 3.40833 11.75 4.475 11.45C5.54167 11.15 6.71667 11 8 11C8.5 11 8.98767 11.025 9.463 11.075C9.93833 11.125 10.4007 11.2 10.85 11.3L9.1 13.05C8.91667 13.0167 8.73767 13 8.563 13H8C6.81667 13 5.754 13.1417 4.812 13.425C3.87 13.7083 3.09933 14.0167 2.5 14.35C2.35 14.4333 2.229 14.55 2.137 14.7C2.045 14.85 1.99933 15.0167 2 15.2V16H8.25L10.25 18H0ZM13.55 18.4L10.1 14.95L11.5 13.55L13.55 15.6L18.6 10.55L20 11.95L13.55 18.4ZM8 10C6.9 10 5.95833 9.60833 5.175 8.825C4.39167 8.04167 4 7.1 4 6C4 4.9 4.39167 3.95833 5.175 3.175C5.95833 2.39167 6.9 2 8 2C9.1 2 10.0417 2.39167 10.825 3.175C11.6083 3.95833 12 4.9 12 6C12 7.1 11.6083 8.04167 10.825 8.825C10.0417 9.60833 9.1 10 8 10ZM8 8C8.55 8 9.021 7.804 9.413 7.412C9.805 7.02 10.0007 6.54933 10 6C10 5.45 9.804 4.979 9.412 4.587C9.02 4.195 8.54933 3.99933 8 4C7.45 4 6.979 4.196 6.587 4.588C6.195 4.98 5.99933 5.45067 6 6C6 6.55 6.196 7.021 6.588 7.413C6.98 7.805 7.45067 8.00067 8 8Z" fill="black"/>
</svg>
