<svg width="20" height="20" viewBox="0 0 20 20" fill="none" xmlns="http://www.w3.org/2000/svg">
<rect width="20" height="20" fill="white"/>
<path d="M18 6.2159L12 1.22487C11.45 0.758069 10.738 0.5 10 0.5C9.2621 0.5 8.55006 0.758069 8.00005 1.22487L2.00009 6.2159C1.68246 6.48544 1.42899 6.81611 1.25656 7.18587C1.08414 7.55563 0.996707 7.956 1.00009 8.36033V16.6534C1.00009 17.4084 1.31616 18.1324 1.87877 18.6663C2.44137 19.2001 3.20443 19.5 4.00007 19.5H16C16.7956 19.5 17.5587 19.2001 18.1213 18.6663C18.6839 18.1324 19 17.4084 19 16.6534V8.35084C19.0019 7.94811 18.9138 7.54956 18.7414 7.18154C18.5691 6.81351 18.3163 6.48438 18 6.2159ZM12 17.6023H8.00005V12.8579C8.00005 12.6063 8.1054 12.3649 8.29294 12.187C8.48047 12.0091 8.73482 11.9091 9.00004 11.9091H11C11.2652 11.9091 11.5196 12.0091 11.7071 12.187C11.8947 12.3649 12 12.6063 12 12.8579V17.6023ZM17 16.6534C17 16.9051 16.8946 17.1464 16.7071 17.3244C16.5196 17.5023 16.2652 17.6023 16 17.6023H14V12.8579C14 12.103 13.6839 11.3789 13.1213 10.8451C12.5587 10.3113 11.7957 10.0114 11 10.0114H9.00004C8.20439 10.0114 7.44134 10.3113 6.87873 10.8451C6.31613 11.3789 6.00006 12.103 6.00006 12.8579V17.6023H4.00007C3.73486 17.6023 3.48051 17.5023 3.29297 17.3244C3.10544 17.1464 3.00008 16.9051 3.00008 16.6534V8.35084C3.00026 8.21612 3.03067 8.08297 3.0893 7.96027C3.14792 7.83756 3.23341 7.72811 3.34008 7.63919L9.34004 2.65765C9.52252 2.50553 9.75712 2.42164 10 2.42164C10.2429 2.42164 10.4775 2.50553 10.66 2.65765L16.66 7.63919C16.7667 7.72811 16.8521 7.83756 16.9108 7.96027C16.9694 8.08297 16.9998 8.21612 17 8.35084V16.6534Z" fill="black"/>
</svg>
