<svg width="20" height="20" viewBox="0 0 20 20" fill="none" xmlns="http://www.w3.org/2000/svg">
<rect width="20" height="20" fill="white"/>
<path d="M14.5612 16.8875L17.8625 13.61L16.865 12.6125L14.5612 14.8687L13.635 13.9425L12.6375 14.9637L14.5612 16.8875ZM3.85 6.2H15.25V4.3H3.85V6.2ZM15.25 19.5C13.9358 19.5 12.8155 19.0367 11.8889 18.1101C10.9623 17.1836 10.4994 16.0635 10.5 14.75C10.5 13.4358 10.9633 12.3155 11.8899 11.3889C12.8164 10.4623 13.9365 9.99937 15.25 10C16.5642 10 17.6845 10.4633 18.6111 11.3899C19.5377 12.3164 20.0006 13.4365 20 14.75C20 16.0642 19.5367 17.1845 18.6102 18.1111C17.6836 19.0377 16.5635 19.5006 15.25 19.5ZM1 18.55V2.4C1 1.8775 1.1862 1.43005 1.5586 1.05765C1.931 0.685251 2.37813 0.499368 2.9 0.500002H16.2C16.7225 0.500002 17.17 0.686202 17.5424 1.0586C17.9148 1.431 18.1006 1.87813 18.1 2.4V8.74125C17.7992 8.59875 17.4904 8.48 17.1737 8.385C16.8571 8.29 16.5325 8.21875 16.2 8.17125V2.4H2.9V15.7475H8.67125C8.75042 16.2383 8.87328 16.7054 9.03985 17.1487C9.20642 17.5921 9.42397 18.0117 9.6925 18.4075L9.55 18.55L8.125 17.125L6.7 18.55L5.275 17.125L3.85 18.55L2.425 17.125L1 18.55ZM3.85 13.8H8.67125C8.71875 13.4675 8.79 13.1429 8.885 12.8262C8.98 12.5096 9.09875 12.2008 9.24125 11.9H3.85V13.8ZM3.85 10H10.595C11.1967 9.41417 11.8974 8.95088 12.6973 8.61015C13.4972 8.26942 14.3481 8.09937 15.25 8.1H3.85V10Z" fill="black"/>
</svg>
