<svg width="20" height="20" viewBox="0 0 20 20" fill="none" xmlns="http://www.w3.org/2000/svg">
<rect width="20" height="20" fill="white"/>
<path d="M8.875 15.5556H11.125V10H8.875V15.5556ZM10 7.77778C10.3187 7.77778 10.5861 7.67111 10.8021 7.45778C11.0181 7.24444 11.1258 6.98074 11.125 6.66667C11.125 6.35185 11.017 6.08778 10.801 5.87444C10.585 5.66111 10.318 5.55482 10 5.55556C9.68125 5.55556 9.41388 5.66222 9.19788 5.87556C8.98188 6.08889 8.87425 6.35259 8.875 6.66667C8.875 6.98148 8.983 7.24556 9.199 7.45889C9.415 7.67222 9.682 7.77852 10 7.77778ZM1 20V6.66667L10 0L19 6.66667V20H1ZM3.25 17.7778H16.75V7.77778L10 2.77778L3.25 7.77778V17.7778Z" fill="black"/>
</svg>
