<svg width="95" height="98" viewBox="0 0 95 98" fill="none" xmlns="http://www.w3.org/2000/svg">
<path d="M64.3685 65.8922L17.8452 66.2316C16.4957 66.2415 15.8206 64.6034 16.7852 63.6596L64.6576 16.8152C65.6221 15.8714 67.2451 16.5818 67.206 17.9308L65.8569 64.4357C65.8335 65.2427 65.1757 65.8863 64.3685 65.8922Z" fill="#602300" stroke="white"/>
<path d="M48.4929 58.7291L47.0796 60.0169L42.0647 54.5132L40.2488 56.1678L39.1742 54.9885L44.2192 50.3914L45.2939 51.5708L43.478 53.2254L48.4929 58.7291ZM54.7715 53.0081L52.8349 51.8604L50.4013 54.0779L51.3645 56.1126L49.8388 57.5027L46.0824 48.6424L47.814 47.0645L56.2972 51.6179L54.7715 53.0081ZM49.5123 49.8684C49.3845 49.7908 49.2216 49.6936 49.0239 49.5768C48.8261 49.4601 48.6255 49.3402 48.4221 49.2172C48.2187 49.0942 48.0445 48.9845 47.8996 48.8881C47.9821 49.0414 48.0806 49.2372 48.195 49.4755C48.3099 49.702 48.4192 49.9222 48.5228 50.1362C48.627 50.3382 48.6978 50.4849 48.7354 50.5763L49.6738 52.565L51.4148 50.9787L49.5123 49.8684ZM53.1882 42.219C54.0493 41.4344 54.847 41.0501 55.5813 41.0663C56.3161 41.0706 56.9792 41.3972 57.5705 42.0462C57.8377 42.3395 58.0499 42.6601 58.2071 43.008C58.3585 43.3497 58.4279 43.7204 58.4153 44.1202C58.4033 44.5081 58.2859 44.9119 58.0632 45.3319C57.8405 45.7518 57.4858 46.1835 56.9991 46.627L56.3907 47.1813L58.557 49.5588L57.1436 50.8466L51.0541 44.1636L53.1882 42.219ZM54.1709 43.4479L53.525 44.0364L55.3331 46.0207L55.8011 45.5943C56.0695 45.3498 56.2691 45.1051 56.4 44.8602C56.5309 44.6153 56.5811 44.3696 56.5507 44.1232C56.5203 43.8768 56.3971 43.635 56.1811 43.3979C55.8797 43.0672 55.5675 42.9062 55.2444 42.9151C54.9156 42.9178 54.5578 43.0954 54.1709 43.4479Z" fill="white"/>
</svg>
